<svg width="21" height="21" viewBox="0 0 21 21" fill="none" xmlns="http://www.w3.org/2000/svg">
<path d="M7 7.875C7 6.244 7 5.4285 6.73487 4.78625C6.55888 4.36124 6.30082 3.97509 5.97547 3.64988C5.65011 3.32468 5.26384 3.0668 4.83875 2.891C4.1965 2.625 3.381 2.625 1.75 2.625C1.75 4.256 1.75 5.0715 2.01512 5.71375C2.19112 6.13876 2.44918 6.52491 2.77453 6.85012C3.09988 7.17532 3.48615 7.4332 3.91125 7.609C4.5535 7.875 5.369 7.875 7 7.875ZM7 7.875C7 6.78737 7 6.244 7.17762 5.81525C7.41475 5.24387 7.86887 4.78888 8.44025 4.55263C8.869 4.375 9.41325 4.375 10.5 4.375C10.5 5.46263 10.5 6.006 10.3224 6.43475C10.0853 7.00621 9.6312 7.46029 9.05975 7.69737C8.631 7.875 8.08762 7.875 7 7.875ZM7 7.875V12.25M10.5 12.25H1.75M10.5 14.875H1.75M10.5 17.5H1.75M14 16.1901C14 15.092 14.9214 14.007 15.568 13.3805C15.7326 13.2168 15.9553 13.1249 16.1875 13.1249C16.4197 13.1249 16.6424 13.2168 16.807 13.3805C17.4536 14.007 18.375 15.092 18.375 16.1901C18.375 17.2673 17.5464 18.375 16.1875 18.375C14.8286 18.375 14 17.2673 14 16.1901Z" stroke="white" stroke-linecap="round" stroke-linejoin="round"/>
</svg>
