<svg width="20" height="20" viewBox="0 0 20 20" fill="none" xmlns="http://www.w3.org/2000/svg">
<path d="M7.5 7.5C7.5 5.94667 7.5 5.17 7.2475 4.55833C7.07988 4.15356 6.83412 3.7858 6.52426 3.47608C6.2144 3.16636 5.84652 2.92076 5.44167 2.75333C4.83 2.5 4.05333 2.5 2.5 2.5C2.5 4.05333 2.5 4.83 2.7525 5.44167C2.92012 5.84644 3.16588 6.2142 3.47574 6.52392C3.78561 6.83364 4.15348 7.07924 4.55833 7.24667C5.17 7.5 5.94667 7.5 7.5 7.5ZM7.5 7.5C7.5 6.46417 7.5 5.94667 7.66917 5.53833C7.895 4.99417 8.3275 4.56083 8.87167 4.33583C9.28 4.16667 9.79834 4.16667 10.8333 4.16667C10.8333 5.2025 10.8333 5.72 10.6642 6.12833C10.4384 6.67258 10.0059 7.10504 9.46167 7.33083C9.05334 7.5 8.535 7.5 7.5 7.5ZM7.5 7.5V11.6667M10.8333 11.6667H2.5M10.8333 14.1667H2.5M10.8333 16.6667H2.5M15.8333 17.5C16.3017 17.5 16.7607 17.3685 17.158 17.1203C17.5552 16.8722 17.8748 16.5174 18.0802 16.0965C18.2857 15.6755 18.3687 15.2053 18.3199 14.7395C18.2711 14.2737 18.0924 13.8309 17.8042 13.4617C17.3842 12.9242 17.1742 12.6558 17.1292 12.5242C17.0842 12.3925 17.0833 12.2192 17.0833 11.8733V8.75C17.0833 8.41848 16.9516 8.10054 16.7172 7.86612C16.4828 7.6317 16.1649 7.5 15.8333 7.5C15.5018 7.5 15.1839 7.6317 14.9495 7.86612C14.715 8.10054 14.5833 8.41848 14.5833 8.75V11.8733C14.5833 12.2192 14.5833 12.3917 14.5375 12.5233C14.4925 12.6558 14.2825 12.9242 13.8625 13.4617C13.5743 13.8309 13.3956 14.2737 13.3468 14.7395C13.298 15.2053 13.381 15.6755 13.5864 16.0965C13.7919 16.5174 14.1114 16.8722 14.5087 17.1203C14.906 17.3685 15.3649 17.5 15.8333 17.5Z" stroke="black" stroke-linecap="round" stroke-linejoin="round"/>
</svg>
